<svg width="32" height="32" viewBox="0 0 32 32" fill="none" xmlns="http://www.w3.org/2000/svg">
<rect x="0.5" y="0.5" width="31" height="31" rx="15.5" fill="#131F34"/>
<rect x="0.5" y="0.5" width="31" height="31" rx="15.5" stroke="#3B82F6"/>
<path d="M25.5056 10.6012L16.6167 4.20176C16.4341 4.07021 16.2195 4 16 4C15.7805 4 15.5659 4.07021 15.3833 4.20176L6.49445 10.6012C6.34211 10.711 6.21725 10.8597 6.13099 11.0341C6.04473 11.2086 5.99973 11.4033 6 11.6011V22.0002C6 22.5306 6.19511 23.0392 6.5424 23.4143C6.88969 23.7893 7.36071 24 7.85185 24H24.1481C24.6393 24 25.1103 23.7893 25.4576 23.4143C25.8049 23.0392 26 22.5306 26 22.0002V11.6011C26.0003 11.4033 25.9553 11.2086 25.869 11.0341C25.7827 10.8597 25.6579 10.711 25.5056 10.6012ZM16 6.64354L22.9315 11.6341L17.2602 16.0007H14.7398L9.06852 11.6341L16 6.64354ZM8.22222 21.6002V13.9299L13.7389 18.1775C13.928 18.3232 14.1547 18.4012 14.387 18.4005H17.6185C17.8508 18.4012 18.0775 18.3232 18.2667 18.1775L23.7778 13.9299V21.6002H8.22222Z" fill="#3B82F6"/>
</svg>
