<svg width="32" height="32" viewBox="0 0 32 32" fill="none" xmlns="http://www.w3.org/2000/svg">
<rect x="0.5" y="0.5" width="31" height="31" rx="15.5" fill="#131F34"/>
<rect x="0.5" y="0.5" width="31" height="31" rx="15.5" stroke="#3B82F6"/>
<path d="M14.2759 12.0714C14.2759 11.7182 14.377 11.373 14.5664 11.0793C14.7559 10.7857 15.0252 10.5568 15.3402 10.4216C15.6552 10.2865 16.0019 10.2511 16.3364 10.32C16.6708 10.3889 16.978 10.559 17.2191 10.8087C17.4603 11.0585 17.6245 11.3767 17.691 11.7231C17.7575 12.0694 17.7234 12.4285 17.5929 12.7548C17.4624 13.0811 17.2414 13.36 16.9579 13.5562C16.6743 13.7524 16.341 13.8571 16 13.8571C15.5427 13.8571 15.1042 13.669 14.7809 13.3341C14.4575 12.9992 14.2759 12.545 14.2759 12.0714ZM10.1379 12.0714C10.1379 10.4612 10.7555 8.91689 11.8549 7.77828C12.9542 6.63967 14.4453 6 16 6C17.5547 6 19.0458 6.63967 20.1451 7.77828C21.2445 8.91689 21.8621 10.4612 21.8621 12.0714C21.8621 17.6295 16.7319 20.7321 16.5129 20.8589C16.3567 20.9513 16.1799 20.9999 16 20.9999C15.8201 20.9999 15.6433 20.9513 15.4871 20.8589C15.2681 20.7321 10.1379 17.6295 10.1379 12.0714ZM12.2069 12.0714C12.2069 15.4821 14.8543 17.8036 16 18.6464C17.1388 17.7991 19.7931 15.4643 19.7931 12.0714C19.7931 11.0295 19.3935 10.0303 18.6821 9.29351C17.9708 8.55676 17.006 8.14286 16 8.14286C14.994 8.14286 14.0292 8.55676 13.3179 9.29351C12.6065 10.0303 12.2069 11.0295 12.2069 12.0714ZM22.9457 17.9286C22.8198 17.8732 22.6845 17.8443 22.5478 17.8435C22.411 17.8426 22.2754 17.8699 22.1489 17.9237C22.0224 17.9774 21.9074 18.0567 21.8106 18.1568C21.7138 18.2569 21.6372 18.3758 21.5851 18.5068C21.533 18.6378 21.5065 18.7782 21.5071 18.9198C21.5078 19.0615 21.5355 19.2016 21.5888 19.3321C21.642 19.4626 21.7197 19.5808 21.8174 19.68C21.9151 19.7791 22.0308 19.8573 22.1578 19.9098C23.3759 20.4295 23.931 21.0241 23.931 21.3571C23.931 21.7143 23.3164 22.3455 21.9681 22.8821C20.3905 23.5071 18.2707 23.8571 16 23.8571C13.7293 23.8571 11.6095 23.5107 10.0319 22.8821C8.68276 22.3455 8.06897 21.7143 8.06897 21.3571C8.06897 21.0241 8.62414 20.4295 9.84224 19.9098C9.96925 19.8573 10.0849 19.7791 10.1826 19.68C10.2803 19.5808 10.358 19.4626 10.4112 19.3321C10.4645 19.2016 10.4922 19.0615 10.4929 18.9198C10.4935 18.7782 10.467 18.6378 10.4149 18.5068C10.3628 18.3758 10.2862 18.2569 10.1894 18.1568C10.0926 18.0567 9.97763 17.9774 9.8511 17.9237C9.72457 17.8699 9.589 17.8426 9.45223 17.8435C9.31546 17.8443 9.18022 17.8732 9.05431 17.9286C7.66121 18.5223 6 19.5991 6 21.3571C6 24.4054 11.031 26 16 26C18.519 26 20.9017 25.6036 22.7112 24.8821C23.9397 24.3929 26 23.2848 26 21.3571C26 19.5991 24.3388 18.5223 22.9457 17.9286Z" fill="#3B82F6"/>
</svg>
