<svg width="32" height="32" viewBox="0 0 32 32" fill="none" xmlns="http://www.w3.org/2000/svg">
<rect x="0.5" y="0.5" width="31" height="31" rx="15.5" fill="#131F34"/>
<rect x="0.5" y="0.5" width="31" height="31" rx="15.5" stroke="#3B82F6"/>
<path d="M25.6707 24.0995L21.2786 19.7057C22.5955 17.9897 23.2103 15.8371 22.9983 13.6845C22.7864 11.5319 21.7635 9.54046 20.1372 8.11425C18.5109 6.68804 16.403 5.93381 14.241 6.00456C12.079 6.07532 10.0249 6.96575 8.49536 8.49524C6.9658 10.0247 6.07532 12.0787 6.00456 14.2406C5.93381 16.4025 6.68807 18.5103 8.11435 20.1365C9.54062 21.7628 11.5321 22.7856 13.6848 22.9976C15.8375 23.2095 17.9903 22.5947 19.7064 21.2779L24.1021 25.6744C24.2054 25.7776 24.3279 25.8595 24.4628 25.9154C24.5977 25.9712 24.7423 26 24.8883 26C25.0343 26 25.1788 25.9712 25.3137 25.9154C25.4486 25.8595 25.5711 25.7776 25.6744 25.6744C25.7776 25.5712 25.8595 25.4486 25.9154 25.3137C25.9712 25.1789 26 25.0343 26 24.8883C26 24.7423 25.9712 24.5978 25.9154 24.4629C25.8595 24.328 25.7776 24.2055 25.6744 24.1022L25.6707 24.0995ZM8.23829 14.5268C8.23829 13.2831 8.60713 12.0672 9.29816 11.033C9.9892 9.99888 10.9714 9.19285 12.1206 8.71688C13.2697 8.2409 14.5342 8.11637 15.7541 8.35902C16.9741 8.60167 18.0947 9.2006 18.9742 10.0801C19.8537 10.9596 20.4527 12.0801 20.6953 13.3C20.938 14.5199 20.8134 15.7843 20.3375 16.9334C19.8615 18.0825 19.0554 19.0647 18.0212 19.7557C16.987 20.4467 15.7711 20.8155 14.5272 20.8155C12.8598 20.8138 11.2612 20.1507 10.0822 18.9717C8.90313 17.7927 8.24 16.1942 8.23829 14.5268Z" fill="#3B82F6"/>
</svg>
