<svg width="32" height="32" viewBox="0 0 32 32" fill="none" xmlns="http://www.w3.org/2000/svg">
<rect x="0.5" y="0.5" width="31" height="31" rx="15.5" fill="#131F34"/>
<rect x="0.5" y="0.5" width="31" height="31" rx="15.5" stroke="#3B82F6"/>
<path d="M25.8685 22.2399C24.599 19.9302 22.6166 18.1306 20.2405 17.1307C21.4221 16.212 22.2949 14.9313 22.7353 13.4699C23.1757 12.0085 23.1613 10.4405 22.6943 8.98799C22.2272 7.5355 21.3311 6.27217 20.1329 5.37695C18.9346 4.48173 17.4951 4 16.018 4C14.541 4 13.1014 4.48173 11.9032 5.37695C10.705 6.27217 9.80889 7.5355 9.34182 8.98799C8.87474 10.4405 8.86039 12.0085 9.30079 13.4699C9.74119 14.9313 10.614 16.212 11.7956 17.1307C9.41952 18.1306 7.43713 19.9302 6.16759 22.2399C6.08893 22.371 6.03649 22.5172 6.01342 22.6697C5.99034 22.8223 5.99708 22.9781 6.03325 23.1279C6.06942 23.2776 6.13427 23.4184 6.22395 23.5416C6.31363 23.6649 6.42631 23.7683 6.55529 23.8455C6.68427 23.9228 6.82691 23.9723 6.97474 23.9913C7.12257 24.0102 7.27257 23.9982 7.41581 23.9559C7.55906 23.9135 7.69264 23.8418 7.8086 23.7449C7.92456 23.6479 8.02054 23.5278 8.09083 23.3917C9.76868 20.3855 12.7318 18.5925 16.018 18.5925C19.3043 18.5925 22.2674 20.3864 23.9453 23.3917C24.0976 23.6456 24.3392 23.8282 24.619 23.9008C24.8989 23.9734 25.1949 23.9303 25.4447 23.7808C25.6945 23.6312 25.8783 23.3868 25.9574 23.0992C26.0365 22.8117 26.0046 22.5035 25.8685 22.2399ZM11.203 11.2977C11.203 10.3105 11.4854 9.34553 12.0145 8.52474C12.5436 7.70394 13.2956 7.06421 14.1754 6.68643C15.0552 6.30866 16.0234 6.20982 16.9574 6.40241C17.8914 6.59499 18.7494 7.07036 19.4228 7.76839C20.0962 8.46642 20.5548 9.35576 20.7406 10.324C20.9264 11.2922 20.831 12.2957 20.4666 13.2077C20.1021 14.1198 19.485 14.8993 18.6931 15.4477C17.9013 15.9961 16.9704 16.2889 16.018 16.2889C14.7415 16.2874 13.5176 15.761 12.6149 14.8253C11.7122 13.8896 11.2045 12.621 11.203 11.2977Z" fill="#3B82F6"/>
</svg>
