<svg width="30" height="30" viewBox="0 0 30 30" fill="none" xmlns="http://www.w3.org/2000/svg">
<path d="M8.39999 11.393L4.07108 15.0001L8.39999 18.6071C8.54356 18.7247 8.66241 18.8697 8.7497 19.0335C8.83698 19.1973 8.89097 19.3768 8.90855 19.5615C8.92614 19.7463 8.90696 19.9328 8.85214 20.1101C8.79732 20.2874 8.70793 20.4522 8.58913 20.5948C8.47033 20.7374 8.32447 20.8551 8.15997 20.9411C7.99546 21.027 7.81556 21.0796 7.63064 21.0957C7.44573 21.1118 7.25945 21.0911 7.08256 21.0349C6.90567 20.9787 6.74166 20.888 6.59999 20.768L0.974991 16.0805C0.816566 15.9486 0.689102 15.7834 0.601628 15.5966C0.514154 15.4099 0.468811 15.2063 0.468811 15.0001C0.468811 14.7939 0.514154 14.5902 0.601628 14.4035C0.689102 14.2168 0.816566 14.0516 0.974991 13.9196L6.59999 9.23209C6.88695 8.99692 7.25522 8.88468 7.62457 8.91983C7.99391 8.95497 8.3344 9.13465 8.57186 9.41972C8.80931 9.7048 8.92449 10.0722 8.8923 10.4418C8.86011 10.8114 8.68316 11.1533 8.39999 11.393ZM29.025 13.9196L23.4 9.23209C23.2583 9.11216 23.0943 9.02145 22.9174 8.96521C22.7405 8.90898 22.5543 8.88831 22.3693 8.90442C22.1844 8.92052 22.0045 8.97308 21.84 9.05905C21.6755 9.14503 21.5297 9.26272 21.4109 9.40534C21.2921 9.54796 21.2027 9.71269 21.1478 9.89002C21.093 10.0674 21.0738 10.2538 21.0914 10.4386C21.109 10.6234 21.163 10.8028 21.2503 10.9666C21.3376 11.1305 21.4564 11.2754 21.6 11.393L25.9289 15.0001L21.6 18.6071C21.4564 18.7247 21.3376 18.8697 21.2503 19.0335C21.163 19.1973 21.109 19.3768 21.0914 19.5615C21.0738 19.7463 21.093 19.9328 21.1478 20.1101C21.2027 20.2874 21.2921 20.4522 21.4109 20.5948C21.5297 20.7374 21.6755 20.8551 21.84 20.9411C22.0045 21.027 22.1844 21.0796 22.3693 21.0957C22.5543 21.1118 22.7405 21.0911 22.9174 21.0349C23.0943 20.9787 23.2583 20.888 23.4 20.768L29.025 16.0805C29.1834 15.9486 29.3109 15.7834 29.3984 15.5966C29.4858 15.4099 29.5312 15.2063 29.5312 15.0001C29.5312 14.7939 29.4858 14.5902 29.3984 14.4035C29.3109 14.2168 29.1834 14.0516 29.025 13.9196ZM19.2305 3.36568C19.0569 3.30256 18.8725 3.27424 18.688 3.28237C18.5035 3.29049 18.3224 3.33489 18.155 3.41302C17.9876 3.49116 17.8373 3.6015 17.7126 3.73775C17.5878 3.874 17.4912 4.03348 17.4281 4.20709L9.92812 24.8321C9.80099 25.1825 9.8182 25.5691 9.97598 25.9068C10.1338 26.2446 10.4192 26.5059 10.7695 26.6333C10.9233 26.6901 11.086 26.719 11.25 26.7188C11.5387 26.7189 11.8205 26.63 12.0569 26.4644C12.2934 26.2988 12.4732 26.0644 12.5719 25.793L20.0719 5.16803C20.135 4.99444 20.1633 4.81011 20.1552 4.62558C20.1471 4.44105 20.1027 4.25992 20.0245 4.09255C19.9464 3.92518 19.8361 3.77484 19.6998 3.65013C19.5636 3.52541 19.4041 3.42875 19.2305 3.36568Z" fill="#3B82F6"/>
</svg>
