<svg width="40" height="40" viewBox="0 0 40 40" fill="none" xmlns="http://www.w3.org/2000/svg">
<path d="M20.3158 39.8989L8.64963 36.6943L6.0498 7.84106H34.6168L32.0143 36.6898L20.3158 39.8989Z" fill="#264DE4"/>
<path d="M29.7863 34.8528L32.0102 10.2002H20.3333V37.446L29.7863 34.8528Z" fill="#2965F1"/>
<path d="M12.0098 20.9015L12.3303 24.4402H20.3334V20.9015H12.0098ZM11.3657 13.739L11.6908 17.2777H20.3334V13.739H11.3657ZM20.3334 30.0919L20.3177 30.096L16.3348 29.0319L16.0802 26.2096H12.4901L12.9911 31.7659L20.3169 33.7781L20.3334 33.7737V30.0919Z" fill="#EBEBEB"/>
<path d="M12.7729 0H17.1043V1.79235H14.5843V3.58471H17.1045V5.37695H12.7729V0ZM17.9707 0H22.3022V1.55856H19.7821V1.87025H22.3022V5.45496H17.9708V3.81828H20.4909V3.50659H17.9706L17.9707 0ZM23.1685 0H27.5V1.55856H24.9799V1.87025H27.5V5.45496H23.1685V3.81828H25.6886V3.50659H23.1686L23.1685 0Z" fill="#4741A6"/>
<path d="M28.634 20.9015L29.2796 13.739H20.321V17.2777H25.3603L25.0349 20.9015H20.321V24.4402H24.7248L24.3096 29.0297L20.3209 30.0949V33.7765L27.6525 31.7659L27.7063 31.168L28.5468 21.8517L28.634 20.9015Z" fill="white"/>
</svg>
