<svg width="40" height="40" viewBox="0 0 40 40" fill="none" xmlns="http://www.w3.org/2000/svg">
<path d="M8.70436 36.3606L6.19092 8.16968H33.809L31.2931 36.3562L19.9831 39.4916L8.70436 36.3606Z" fill="#E44D26"/>
<path d="M20 37.0951L29.1388 34.5613L31.2891 10.4751H20V37.0951Z" fill="#F16529"/>
<path d="M20 20.9306H15.4247L15.1091 17.3896H20V13.9321H11.3303L11.4128 14.8599L12.2628 24.3878H20V20.9306ZM20 29.9096L19.9847 29.9137L16.1344 28.8737L15.8881 26.1165H12.4172L12.9016 31.5453L19.9841 33.5115L20 33.5068V29.9096Z" fill="#EBEBEB"/>
<path d="M8.76062 0.508545H10.5175V2.24479H12.125V0.508545H13.8822V5.76542H12.125V4.00511H10.5178V5.76542H8.76062V0.508545ZM16.1925 2.25198H14.6456V0.508545H19.4972V2.25198H17.9497V5.76542H16.1925V2.25198ZM20.2672 0.508545H22.0991L23.2262 2.35573L24.3522 0.508545H26.185V5.76542H24.4347V3.1598L23.2262 5.02886H23.1956L21.9862 3.1598V5.76542H20.2669V0.508545H20.2672ZM27.0597 0.508545H28.8172V4.02792H31.2881V5.76573H27.0597V0.508545Z" fill="#4741A6"/>
<path d="M19.9881 20.9306V24.3878H24.2456L23.8443 28.8718L19.9881 29.9128V33.5096L27.0762 31.5453L27.1281 30.9609L27.9406 21.8587L28.025 20.9306H27.0931H19.9881ZM19.9881 13.9321V17.3896H28.3397L28.4087 16.6124L28.5665 14.8599L28.6493 13.9321H19.9881Z" fill="white"/>
</svg>
