<svg width="40" height="40" viewBox="0 0 40 40" fill="none" xmlns="http://www.w3.org/2000/svg">
<path d="M16.4316 21.1929C16.4316 21.1929 15.4053 21.7901 17.1632 21.992C19.2925 22.2351 20.381 22.2001 22.7272 21.7567C22.7272 21.7567 23.3456 22.1432 24.2069 22.4782C18.9456 24.7323 12.2994 22.3476 16.4316 21.1929ZM15.7882 18.2507C15.7882 18.2507 14.6369 19.1035 16.396 19.2854C18.671 19.5201 20.4669 19.5395 23.5769 18.9407C23.5769 18.9407 24.006 19.377 24.6819 19.6148C18.3219 21.4754 11.2378 19.7614 15.7882 18.2507Z" fill="#0074BD"/>
<path d="M21.2078 13.2597C22.505 14.7528 20.8678 16.0953 20.8678 16.0953C20.8678 16.0953 24.1594 14.3962 22.6478 12.2678C21.2356 10.2837 20.1535 9.29841 26.0138 5.89966C26.0138 5.89966 16.8144 8.19653 21.2078 13.2597Z" fill="#EA2D2E"/>
<path d="M28.1663 23.3692C28.1663 23.3692 28.9263 23.9957 27.3294 24.4801C24.2931 25.3998 14.6906 25.6773 12.0234 24.5167C11.0653 24.0995 12.8631 23.5207 13.4285 23.3992C14.0181 23.2714 14.355 23.2948 14.355 23.2948C13.2888 22.5439 7.46282 24.7695 11.3959 25.4079C22.1222 27.1464 30.9481 24.6248 28.1663 23.3692ZM16.9256 15.2023C16.9256 15.2023 12.0416 16.3626 15.1963 16.7845C16.5288 16.9626 19.1831 16.9217 21.6575 16.7142C23.6791 16.5445 25.7078 16.1817 25.7078 16.1817C25.7078 16.1817 24.9956 16.4873 24.4797 16.8392C19.5191 18.1439 9.93814 17.5361 12.6966 16.2023C15.0288 15.0739 16.9256 15.2023 16.9256 15.2023ZM25.6875 20.0992C30.7297 17.4798 28.3981 14.9623 26.771 15.3014C26.3731 15.3845 26.1944 15.4564 26.1944 15.4564C26.1944 15.4564 26.3428 15.2239 26.625 15.1242C29.8444 13.9929 32.3197 18.462 25.5869 20.232C25.5869 20.232 25.6641 20.162 25.6875 20.0992Z" fill="#0074BD"/>
<path d="M22.6481 0.4104C22.6481 0.4104 25.4403 3.20384 19.9993 7.49853C15.6362 10.9445 19.0043 12.9088 19.9975 15.1542C17.4506 12.856 15.5825 10.8329 16.8356 8.9504C18.6759 6.18728 23.7743 4.84696 22.6481 0.4104Z" fill="#EA2D2E"/>
<path d="M17.4216 27.1997C22.2603 27.509 29.6931 27.0275 29.8691 24.7378C29.8691 24.7378 29.5309 25.6056 25.8694 26.2944C21.7388 27.0719 16.6434 26.9815 13.6222 26.4828C13.6222 26.4828 14.2409 26.9953 17.4216 27.1997Z" fill="#0074BD"/>
<path d="M29.6457 31.3064H29.4982V31.2239H29.895V31.3064H29.7482V31.718H29.6453L29.6457 31.3064ZM30.4378 31.3271H30.436L30.2897 31.718H30.2222L30.0769 31.3271H30.0753V31.718H29.9778V31.2239H30.1207L30.2553 31.5736L30.3903 31.2239H30.5322V31.718H30.4378V31.3271ZM16.6285 35.9489C16.1722 36.3446 15.6897 36.5671 15.2563 36.5671C14.6394 36.5671 14.3047 36.1964 14.3047 35.603C14.3047 34.9608 14.6628 34.4905 16.0978 34.4905H16.6282L16.6285 35.9489ZM17.8882 37.3702V32.9711C17.8882 31.8464 17.2466 31.1046 15.7016 31.1046C14.7997 31.1046 14.0091 31.3277 13.3663 31.6114L13.5513 32.3905C14.0575 32.2046 14.7122 32.0321 15.3547 32.0321C16.2453 32.0321 16.6282 32.3905 16.6282 33.1324V33.6883H16.1832C14.0203 33.6883 13.0444 34.5274 13.0444 35.7893C13.0444 36.8764 13.6875 37.4943 14.8985 37.4943C15.6766 37.4943 16.2582 37.173 16.801 36.7027L16.8997 37.3705L17.8882 37.3702ZM22.0919 37.3702H20.521L18.63 31.2174H20.0022L21.176 34.9983L21.4369 36.1343C22.0294 34.4911 22.4494 32.823 22.6594 31.2177H23.9941C23.6369 33.243 22.9932 35.4671 22.0919 37.3702ZM28.1194 35.9489C27.6616 36.3446 27.1788 36.5671 26.7469 36.5671C26.1294 36.5671 25.795 36.1964 25.795 35.603C25.795 34.9608 26.1541 34.4905 27.5875 34.4905H28.1191L28.1194 35.9489ZM29.3797 37.3702V32.9711C29.3797 31.8464 28.7363 31.1046 27.1925 31.1046C26.2897 31.1046 25.4994 31.3277 24.8566 31.6114L25.0419 32.3905C25.5482 32.2046 26.2038 32.0321 26.8463 32.0321C27.7357 32.0321 28.1194 32.3905 28.1194 33.1324V33.6883H27.6744C25.511 33.6883 24.5353 34.5274 24.5353 35.7893C24.5353 36.8764 25.1778 37.4943 26.3885 37.4943C27.1669 37.4943 27.7475 37.173 28.2919 36.7027L28.3913 37.3705L29.3797 37.3702ZM11.6632 38.4158C11.3047 38.9405 10.7241 39.3558 10.0891 39.5899L9.46753 38.8571C9.95097 38.6089 10.365 38.2086 10.5578 37.8355C10.7241 37.5033 10.7932 37.0761 10.7932 36.0539V29.0283H12.1319V35.9574C12.1319 37.3246 12.0232 37.8774 11.6632 38.4158Z" fill="#EA2D2E"/>
</svg>
