<svg width="40" height="40" viewBox="0 0 40 40" fill="none" xmlns="http://www.w3.org/2000/svg">
<path d="M2.5 2.5H37.5V37.5H2.5V2.5Z" fill="#F5DE19"/>
<path d="M26.0113 29.8437C26.31 30.4491 26.7734 30.9579 27.3483 31.3117C27.9232 31.6655 28.5863 31.8499 29.2613 31.8437C30.6238 31.8437 31.495 31.1624 31.495 30.2187C31.495 29.0937 30.6 28.6912 29.1 28.0349L28.2775 27.6824C25.9025 26.6712 24.3275 25.4049 24.3275 22.7274C24.3275 20.2612 26.2025 18.3824 29.1438 18.3824C30.0959 18.3139 31.0471 18.527 31.8789 18.9954C32.7107 19.4637 33.3862 20.1665 33.8213 21.0162L31.25 22.6599C31.0824 22.2387 30.7908 21.8783 30.4137 21.6265C30.0367 21.3747 29.5921 21.2434 29.1388 21.2499C28.941 21.2301 28.7412 21.2518 28.5522 21.3134C28.3633 21.3751 28.1892 21.4754 28.0411 21.6081C27.8931 21.7407 27.7743 21.9028 27.6923 22.0839C27.6103 22.265 27.567 22.4612 27.565 22.6599C27.565 23.6462 28.1763 24.0462 29.5875 24.6599L30.41 25.0124C33.205 26.2112 34.785 27.4324 34.785 30.1787C34.785 33.1399 32.4588 34.7624 29.335 34.7624C28.118 34.8392 26.9048 34.5625 25.8414 33.9657C24.778 33.369 23.9098 32.4775 23.3413 31.3987L26.0113 29.8437ZM14.3925 30.1287C14.9088 31.0449 15.3788 31.8199 16.5088 31.8199C17.5888 31.8199 18.2713 31.3974 18.2713 29.7537V18.5699H21.56V29.7974C21.56 33.2024 19.56 34.7524 16.6488 34.7524C15.6197 34.8087 14.5977 34.5522 13.7171 34.0168C12.8365 33.4813 12.1386 32.692 11.715 31.7524L14.3925 30.1287Z" fill="#4741A6"/>
</svg>
