<svg width="40" height="40" viewBox="0 0 40 40" fill="none" xmlns="http://www.w3.org/2000/svg">
<path fill-rule="evenodd" clip-rule="evenodd" d="M18.665 1.52325C19.0645 1.2709 19.5274 1.13696 20 1.13696C20.4725 1.13696 20.9354 1.2709 21.335 1.52325L35.5016 10.4716C35.8582 10.6968 36.1519 11.0084 36.3556 11.3776C36.5593 11.7469 36.6663 12.1616 36.6666 12.5833V27.4133C36.6666 27.8352 36.5597 28.2503 36.356 28.6198C36.1523 28.9893 35.8584 29.3013 35.5016 29.5266L21.335 38.4733C20.9354 38.7256 20.4725 38.8595 20 38.8595C19.5274 38.8595 19.0645 38.7256 18.665 38.4733L4.49831 29.5266C4.1418 29.3014 3.84803 28.9897 3.64434 28.6205C3.44065 28.2513 3.33366 27.8366 3.33331 27.4149V12.5833C3.33338 12.1613 3.44024 11.7462 3.64394 11.3767C3.84764 11.0072 4.14156 10.6952 4.49831 10.4699L18.665 1.52325ZM21.535 25.0166C22.5805 24.7062 23.5029 24.0768 24.1733 23.2166L28.75 25.8333C27.4994 27.6976 25.6828 29.1107 23.5681 29.8642C21.4534 30.6176 19.1525 30.6715 17.0048 30.018C14.8571 29.3644 12.9763 28.0379 11.6398 26.2341C10.3033 24.4304 9.58188 22.2449 9.58188 19.9999C9.58188 17.755 10.3033 15.5695 11.6398 13.7657C12.9763 11.962 14.8571 10.6355 17.0048 9.98188C19.1525 9.32829 21.4534 9.3822 23.5681 10.1357C25.6828 10.8891 27.4994 12.3022 28.75 14.1666L24.1733 16.7833C23.5883 16.0309 22.809 15.4525 21.9195 15.1104C21.03 14.7683 20.0639 14.6754 19.1255 14.8417C18.1871 15.008 17.3119 15.4273 16.5942 16.0543C15.8765 16.6814 15.3435 17.4924 15.0526 18.4C14.7618 19.3075 14.7242 20.2773 14.9438 21.2047C15.1634 22.1321 15.6319 22.9819 16.2989 23.6627C16.9658 24.3435 17.8059 24.8293 18.7286 25.0679C19.6513 25.3065 20.6216 25.2887 21.535 25.0166Z" fill="#0051FF"/>
</svg>
