<svg width="30" height="30" viewBox="0 0 30 30" fill="none" xmlns="http://www.w3.org/2000/svg">
<path d="M27.6563 3.75C27.6563 3.37704 27.5081 3.01935 27.2444 2.75563C26.9807 2.49191 26.623 2.34375 26.25 2.34375C21.0024 2.34375 15.7031 8.03203 12.668 11.9531C11.5594 11.6669 10.4 11.6383 9.2786 11.8694C8.15723 12.1006 7.10368 12.5855 6.19869 13.2869C5.2937 13.9882 4.56131 14.8875 4.05764 15.9157C3.55397 16.9439 3.2924 18.0738 3.29298 19.2188C3.29298 20.625 2.9297 21.8801 2.21134 22.9406C1.90969 23.4004 1.53481 23.8078 1.10157 24.1465C0.848985 24.3105 0.656372 24.5519 0.552629 24.8346C0.448886 25.1173 0.439606 25.426 0.526181 25.7145C0.614591 26.0063 0.794928 26.2617 1.04031 26.4427C1.2857 26.6236 1.583 26.7205 1.8879 26.7188H10.7941C11.938 26.7174 13.0664 26.4543 14.093 25.9498C15.1196 25.4453 16.0172 24.7127 16.7171 23.8079C17.417 22.9032 17.9007 21.8504 18.1312 20.73C18.3617 19.6096 18.3329 18.4513 18.0469 17.3438C21.9715 14.3027 27.6563 9 27.6563 3.75ZM24.5649 5.43633C24.0961 6.95039 23.0238 8.65781 21.4102 10.4648C21.0586 10.8621 20.6883 11.25 20.3145 11.6238C19.7443 10.9086 19.0958 10.2596 18.3809 9.68906C18.7547 9.31523 19.1414 8.94844 19.5387 8.59336C21.3457 6.97852 23.052 5.90977 24.5649 5.43633ZM10.7895 23.9062H4.92188C5.72021 22.4742 6.12987 20.8582 6.11017 19.2188C6.11017 18.2917 6.38508 17.3854 6.90015 16.6145C7.41522 15.8437 8.14731 15.2429 9.00384 14.8881C9.86037 14.5333 10.8029 14.4405 11.7122 14.6213C12.6214 14.8022 13.4567 15.2486 14.1122 15.9042C14.7678 16.5597 15.2142 17.395 15.3951 18.3043C15.576 19.2135 15.4831 20.1561 15.1284 21.0126C14.7736 21.8691 14.1728 22.6012 13.4019 23.1163C12.631 23.6313 11.7248 23.9062 10.7977 23.9062H10.7895ZM15.2637 13.2047C15.6293 12.7441 16.0313 12.2566 16.4625 11.7574C17.1348 12.2701 17.735 12.8708 18.2473 13.5434C17.7481 13.9746 17.2606 14.3766 16.8 14.7422C16.3647 14.1583 15.8473 13.6404 15.2637 13.2047Z" fill="#3B82F6"/>
</svg>
