<svg width="40" height="40" viewBox="0 0 40 40" fill="none" xmlns="http://www.w3.org/2000/svg">
<path d="M19.8097 3.8274C18.4903 3.83365 17.2309 3.94583 16.1222 4.14208C12.8566 4.71896 12.2641 5.92646 12.2641 8.15365V11.0946H19.9806V12.0749H9.36781C7.12531 12.0749 5.16156 13.4227 4.54719 15.9877C3.83844 18.9268 3.80719 20.7611 4.54719 23.8302C5.09563 26.1149 6.40563 27.7424 8.64844 27.7424H11.3019V24.2168C11.3019 21.6696 13.5053 19.423 16.1225 19.423H23.8303C25.9759 19.423 27.6884 17.6561 27.6884 15.5018V8.15396C27.6884 6.0624 25.9241 4.49146 23.8303 4.1424C22.5041 3.92177 21.1288 3.82146 19.8097 3.8274ZM15.6366 6.19271C16.4334 6.19271 17.0847 6.85427 17.0847 7.66802C17.0847 8.47833 16.4338 9.13365 15.6366 9.13365C14.8366 9.13365 14.1888 8.47833 14.1888 7.66802C14.1884 6.85427 14.8366 6.19271 15.6366 6.19271Z" fill="url(#paint0_linear_36_79)"/>
<path d="M28.6506 12.075V15.5019C28.6506 18.1581 26.3981 20.3941 23.83 20.3941H16.1222C14.0109 20.3941 12.264 22.2013 12.264 24.3156V31.6641C12.264 33.755 14.0822 34.9853 16.1222 35.585C18.5647 36.3028 20.9072 36.4328 23.83 35.585C25.7725 35.0222 27.6881 33.8903 27.6881 31.6641V28.7228H19.9806V27.7422H31.5469C33.7894 27.7422 34.6256 26.1781 35.4056 23.83C36.2112 21.4128 36.1765 19.0881 35.4056 15.9875C34.8512 13.7547 33.7928 12.0747 31.5469 12.0747L28.6506 12.075ZM24.3153 30.6835C25.1156 30.6835 25.7634 31.3388 25.7634 32.1497C25.7634 32.9628 25.1153 33.6244 24.3153 33.6244C23.5184 33.6244 22.8675 32.9628 22.8675 32.1497C22.8675 31.3388 23.5184 30.6835 24.3153 30.6835Z" fill="url(#paint1_linear_36_79)"/>
<path opacity="0.444" d="M30.4091 37.374C30.4091 38.4812 25.7791 39.379 20.0681 39.379C14.3569 39.379 9.72687 38.4812 9.72687 37.374C9.72687 36.2668 14.3566 35.3687 20.0681 35.3687C25.7791 35.3687 30.4091 36.2662 30.4091 37.374Z" fill="url(#paint2_radial_36_79)"/>
<defs>
<linearGradient id="paint0_linear_36_79" x1="3.23028" y1="4.74697" x2="21.0283" y2="19.9251" gradientUnits="userSpaceOnUse">
<stop stop-color="#5A9FD4"/>
<stop offset="1" stop-color="#306998"/>
</linearGradient>
<linearGradient id="paint1_linear_36_79" x1="27.7246" y1="29.3601" x2="21.342" y2="20.4095" gradientUnits="userSpaceOnUse">
<stop stop-color="#FFD43B"/>
<stop offset="1" stop-color="#FFE873"/>
</linearGradient>
<radialGradient id="paint2_radial_36_79" cx="0" cy="0" r="1" gradientUnits="userSpaceOnUse" gradientTransform="translate(20.0263 37.3166) rotate(-90) scale(2.00572 8.81683)">
<stop stop-color="#B8B8B8" stop-opacity="0.498"/>
<stop offset="1" stop-color="#7F7F7F" stop-opacity="0"/>
</radialGradient>
</defs>
</svg>
