<svg width="30" height="30" viewBox="0 0 30 30" fill="none" xmlns="http://www.w3.org/2000/svg">
<path d="M23.3203 14.6848L17.475 12.5297L15.3152 6.67969C15.1501 6.23177 14.8516 5.84526 14.4599 5.57226C14.0683 5.29926 13.6024 5.15289 13.125 5.15289C12.6476 5.15289 12.1817 5.29926 11.7901 5.57226C11.3984 5.84526 11.0999 6.23177 10.9348 6.67969L8.77969 12.5297L2.92969 14.6848C2.48178 14.8499 2.09526 15.1484 1.82226 15.5401C1.54926 15.9317 1.40289 16.3976 1.40289 16.875C1.40289 17.3524 1.54926 17.8183 1.82226 18.2099C2.09526 18.6016 2.48178 18.9001 2.92969 19.0652L8.775 21.2203L10.9348 27.0703C11.0999 27.5182 11.3984 27.9047 11.7901 28.1777C12.1817 28.4507 12.6476 28.5971 13.125 28.5971C13.6024 28.5971 14.0683 28.4507 14.4599 28.1777C14.8516 27.9047 15.1501 27.5182 15.3152 27.0703L17.4703 21.225L23.3203 19.0652C23.7682 18.9001 24.1547 18.6016 24.4277 18.2099C24.7007 17.8183 24.8471 17.3524 24.8471 16.875C24.8471 16.3976 24.7007 15.9317 24.4277 15.5401C24.1547 15.1484 23.7682 14.8499 23.3203 14.6848ZM15.893 18.8051C15.7021 18.8754 15.5287 18.9864 15.3849 19.1302C15.241 19.274 15.1301 19.4474 15.0598 19.6383L13.125 24.8766L11.1949 19.6383C11.1246 19.4474 11.0136 19.274 10.8698 19.1302C10.726 18.9864 10.5526 18.8754 10.3617 18.8051L5.12344 16.875L10.3617 14.9449C10.5526 14.8746 10.726 14.7636 10.8698 14.6198C11.0136 14.4759 11.1246 14.3026 11.1949 14.1117L13.125 8.87344L15.0551 14.1117C15.1254 14.3026 15.2364 14.4759 15.3802 14.6198C15.5241 14.7636 15.6974 14.8746 15.8883 14.9449L21.1266 16.875L15.893 18.8051ZM16.4063 4.6875C16.4063 4.31454 16.5544 3.95685 16.8181 3.69313C17.0819 3.42941 17.4395 3.28125 17.8125 3.28125H19.2188V1.875C19.2188 1.50204 19.3669 1.14435 19.6306 0.880631C19.8944 0.616908 20.252 0.46875 20.625 0.46875C20.998 0.46875 21.3556 0.616908 21.6194 0.880631C21.8831 1.14435 22.0313 1.50204 22.0313 1.875V3.28125H23.4375C23.8105 3.28125 24.1681 3.42941 24.4319 3.69313C24.6956 3.95685 24.8438 4.31454 24.8438 4.6875C24.8438 5.06046 24.6956 5.41815 24.4319 5.68187C24.1681 5.94559 23.8105 6.09375 23.4375 6.09375H22.0313V7.5C22.0313 7.87296 21.8831 8.23065 21.6194 8.49437C21.3556 8.75809 20.998 8.90625 20.625 8.90625C20.252 8.90625 19.8944 8.75809 19.6306 8.49437C19.3669 8.23065 19.2188 7.87296 19.2188 7.5V6.09375H17.8125C17.4395 6.09375 17.0819 5.94559 16.8181 5.68187C16.5544 5.41815 16.4063 5.06046 16.4063 4.6875ZM29.5313 10.3125C29.5313 10.6855 29.3831 11.0431 29.1194 11.3069C28.8556 11.5706 28.498 11.7187 28.125 11.7187H27.6563V12.1875C27.6563 12.5605 27.5081 12.9181 27.2444 13.1819C26.9806 13.4456 26.623 13.5937 26.25 13.5937C25.877 13.5937 25.5194 13.4456 25.2556 13.1819C24.9919 12.9181 24.8438 12.5605 24.8438 12.1875V11.7187H24.375C24.002 11.7187 23.6444 11.5706 23.3806 11.3069C23.1169 11.0431 22.9688 10.6855 22.9688 10.3125C22.9688 9.93954 23.1169 9.58185 23.3806 9.31813C23.6444 9.05441 24.002 8.90625 24.375 8.90625H24.8438V8.4375C24.8438 8.06454 24.9919 7.70685 25.2556 7.44313C25.5194 7.17941 25.877 7.03125 26.25 7.03125C26.623 7.03125 26.9806 7.17941 27.2444 7.44313C27.5081 7.70685 27.6563 8.06454 27.6563 8.4375V8.90625H28.125C28.498 8.90625 28.8556 9.05441 29.1194 9.31813C29.3831 9.58185 29.5313 9.93954 29.5313 10.3125Z" fill="#3B82F6"/>
</svg>
