<svg width="40" height="40" viewBox="0 0 40 40" fill="none" xmlns="http://www.w3.org/2000/svg">
<path d="M17.6687 5H22.625V27.7112C20.5096 28.1472 18.3561 28.3713 16.1962 28.38C10.1437 28.3737 6.99374 25.67 6.99374 20.4775C6.99374 15.4775 10.335 12.2275 15.5137 12.2275C16.24 12.2141 16.9648 12.2982 17.6687 12.4775V5ZM17.6687 16.4275C17.1299 16.2499 16.5647 16.1654 15.9975 16.1775C13.4975 16.1775 12.0437 17.7062 12.0437 20.385C12.0437 22.9937 13.4275 24.4338 15.9662 24.4338C16.5361 24.4353 17.1052 24.3935 17.6687 24.3087V16.4337V16.4275Z" fill="#44B78B"/>
<path d="M30.5 12.5737V23.9487C30.5 27.8649 30.2063 29.7474 29.3463 31.3712C28.4682 33.0219 27.0331 34.3077 25.2963 34.9999L20.6988 32.8337C22.3695 32.2626 23.7686 31.0915 24.625 29.5474C25.3325 28.1462 25.5563 26.5224 25.5563 22.2512V12.5737H30.5ZM25.5513 5.0249H30.5063V10.0599H25.5513V5.0249Z" fill="#44B78B"/>
</svg>
